<svg xmlns="http://www.w3.org/2000/svg" viewBox="0 0 24 24">
  <path d="m11.47 18.6-4.5 2.73a1 1 0 0 1-1.37-.32.98.98 0 0 1-.12-.76l.7-2.73c.25-.98.93-1.8 1.85-2.24l4.91-2.34a.46.46 0 0 0 .22-.61.46.46 0 0 0-.5-.25l-5.46.94a3.85 3.85 0 0 1-3.12-.84l-1.72-1.43A.98.98 0 0 1 2.92 9l5.27-.41a1 1 0 0 0 .84-.61l2.04-4.88a1 1 0 0 1 1.83 0l2.04 4.88a1 1 0 0 0 .84.6l5.3.42a.99.99 0 0 1 .57 1.73l-4.04 3.43a.98.98 0 0 0-.33.98l1.25 5.13a.99.99 0 0 1-.74 1.2 1 1 0 0 1-.75-.13L12.5 18.6a1 1 0 0 0-1.03 0Z" />
</svg>
